<svg xmlns="http://www.w3.org/2000/svg" xmlns:xlink="http://www.w3.org/1999/xlink"><symbol id="icon-facebook">
<path fill-rule="evenodd" fill="rgb(255, 255, 255)" d="M12.089,0.199 C12.089,1.675 12.089,4.320 12.089,4.320 C12.089,4.320 9.052,4.017 8.291,5.181 C7.875,5.817 8.122,7.681 8.085,9.019 C9.411,9.019 10.788,9.019 12.114,9.019 C11.774,10.583 11.530,11.643 11.279,12.997 C10.132,12.997 8.063,12.997 8.063,12.997 L8.063,25.801 C8.063,25.801 4.266,25.801 2.481,25.801 C2.482,21.854 2.480,17.249 2.481,13.047 C1.614,13.047 0.973,13.047 0.106,13.047 C0.106,11.571 0.106,10.496 0.106,9.019 C0.947,9.019 1.613,9.019 2.455,9.019 C2.575,6.073 2.620,3.155 4.084,1.669 C5.728,-0.002 7.297,0.199 12.089,0.199 Z"/>
</symbol><symbol id="icon-instagram">
<path fill-rule="evenodd" fill="rgb(243, 129, 129)" d="M22.700,25.800 L3.500,25.800 C1.733,25.800 0.300,24.367 0.300,22.599 L0.300,3.400 C0.300,1.632 1.733,0.199 3.500,0.199 L22.700,0.199 C24.467,0.199 25.900,1.632 25.900,3.400 L25.900,22.599 C25.900,24.367 24.467,25.800 22.700,25.800 ZM13.100,8.039 C11.104,8.039 9.389,9.221 8.602,10.919 L8.597,10.919 C8.589,10.937 8.583,10.956 8.575,10.974 C8.528,11.079 8.487,11.187 8.447,11.295 C8.428,11.348 8.407,11.399 8.390,11.451 C8.353,11.563 8.323,11.676 8.295,11.791 C8.281,11.844 8.265,11.897 8.253,11.951 C8.227,12.072 8.209,12.195 8.192,12.319 C8.185,12.369 8.175,12.418 8.169,12.469 C8.151,12.643 8.140,12.820 8.140,13.000 C8.140,15.739 10.361,17.959 13.100,17.959 C15.839,17.959 18.060,15.739 18.060,13.000 C18.060,12.820 18.049,12.643 18.031,12.469 C18.025,12.418 18.015,12.369 18.008,12.319 C17.991,12.195 17.973,12.072 17.947,11.951 C17.935,11.897 17.919,11.844 17.905,11.791 C17.877,11.676 17.847,11.563 17.810,11.451 C17.793,11.399 17.772,11.348 17.753,11.295 C17.713,11.187 17.672,11.079 17.625,10.974 C17.617,10.956 17.611,10.937 17.603,10.919 L17.598,10.919 C16.811,9.221 15.096,8.039 13.100,8.039 ZM23.020,4.359 C23.020,3.652 22.447,3.080 21.740,3.080 L19.180,3.080 C18.473,3.080 17.900,3.652 17.900,4.359 L17.900,6.920 C17.900,7.627 18.473,8.200 19.180,8.200 L21.740,8.200 C22.447,8.200 23.020,7.627 23.020,6.920 L23.020,4.359 ZM23.020,10.919 L20.660,10.919 C20.842,11.582 20.940,12.280 20.940,13.000 C20.940,17.330 17.430,20.839 13.100,20.839 C8.770,20.839 5.260,17.330 5.260,13.000 C5.260,12.280 5.358,11.582 5.540,10.919 L3.180,10.919 L3.180,21.639 C3.180,22.347 3.753,22.920 4.460,22.920 L21.740,22.920 C22.447,22.920 23.020,22.347 23.020,21.639 L23.020,10.919 Z"/>
</symbol><symbol id="icon-pinterest">
<path fill-rule="evenodd" fill="rgb(243, 129, 129)" d="M9.051,16.854 C8.842,17.687 8.631,18.560 8.413,19.414 C8.198,20.256 8.008,21.110 7.695,21.884 C7.176,23.165 6.517,24.403 5.652,25.405 C5.077,26.072 5.199,25.806 5.026,25.770 C4.894,25.742 4.883,25.613 4.857,25.425 C4.716,24.407 4.812,23.230 4.864,22.086 C4.924,20.782 5.198,19.698 5.453,18.615 C5.937,16.551 6.399,14.528 6.888,12.451 C6.920,12.313 7.008,12.085 6.978,12.006 C6.756,11.429 6.612,10.911 6.549,10.305 C6.476,9.610 6.532,8.961 6.688,8.362 C6.965,7.304 7.601,6.367 8.582,6.024 C9.206,5.808 9.897,5.906 10.317,6.156 C10.749,6.415 11.046,6.823 11.184,7.402 C11.332,8.017 11.223,8.753 11.104,9.293 C10.837,10.512 10.486,11.427 10.167,12.603 C10.009,13.186 9.830,13.785 9.978,14.415 C10.114,14.993 10.415,15.391 10.825,15.690 C11.251,16.000 11.755,16.169 12.450,16.145 C13.678,16.102 14.531,15.317 15.101,14.577 C16.014,13.392 16.566,11.793 16.776,9.891 C16.843,9.277 16.893,8.572 16.846,7.877 C16.758,6.593 16.357,5.560 15.719,4.760 C15.113,3.997 14.253,3.391 13.207,3.049 C12.170,2.711 10.735,2.598 9.460,2.816 C7.142,3.213 5.508,4.530 4.545,6.349 C4.041,7.301 3.708,8.396 3.708,9.759 C3.708,10.810 3.967,11.624 4.386,12.259 C4.519,12.460 4.714,12.626 4.844,12.856 C5.029,13.182 4.816,13.667 4.725,14.020 C4.615,14.445 4.603,15.032 4.107,15.042 C3.901,15.046 3.643,14.896 3.469,14.799 C2.164,14.078 1.372,12.766 1.047,11.065 C0.849,10.031 0.850,8.826 1.047,7.827 C1.237,6.860 1.591,5.969 1.984,5.246 C2.798,3.743 3.991,2.541 5.443,1.683 C6.559,1.023 7.818,0.560 9.350,0.337 C9.858,0.263 10.384,0.232 10.955,0.205 C12.623,0.127 14.139,0.505 15.281,1.015 C16.486,1.554 17.448,2.271 18.261,3.161 C19.099,4.076 19.709,5.140 20.095,6.470 C20.297,7.162 20.493,7.902 20.493,8.757 C20.493,9.615 20.312,10.370 20.185,11.125 C19.711,13.953 18.366,16.266 16.347,17.583 C15.858,17.901 15.266,18.196 14.593,18.392 C13.926,18.586 13.165,18.732 12.350,18.675 C11.559,18.621 10.911,18.406 10.367,18.098 C9.827,17.793 9.373,17.419 9.051,16.854 Z"/>
</symbol><symbol id="icon-twitter">
<path fill-rule="evenodd" fill="rgb(243, 129, 129)" d="M17.513,0.601 C19.547,0.565 20.630,1.306 21.664,2.248 C22.542,2.173 23.683,1.683 24.355,1.341 C24.572,1.223 24.790,1.103 25.008,0.984 C24.624,2.021 24.104,2.833 23.304,3.450 C23.126,3.586 22.950,3.771 22.727,3.858 C22.727,3.862 22.727,3.867 22.727,3.871 C23.867,3.860 24.807,3.345 25.700,3.066 C25.700,3.070 25.700,3.075 25.700,3.079 C25.231,3.824 24.596,4.581 23.919,5.123 C23.646,5.340 23.372,5.557 23.099,5.774 C23.114,6.981 23.081,8.133 22.856,9.147 C21.544,15.042 18.068,19.044 12.567,20.759 C10.591,21.374 7.399,21.627 5.135,21.065 C4.013,20.787 2.999,20.472 2.048,20.056 C1.519,19.825 1.029,19.575 0.561,19.289 C0.407,19.196 0.254,19.102 0.100,19.009 C0.610,19.024 1.208,19.165 1.778,19.072 C2.295,18.989 2.801,19.011 3.278,18.907 C4.466,18.646 5.521,18.301 6.429,17.769 C6.870,17.511 7.539,17.209 7.852,16.837 C7.262,16.847 6.727,16.710 6.289,16.556 C4.590,15.956 3.601,14.853 2.957,13.196 C3.472,13.253 4.955,13.387 5.302,13.094 C4.654,13.058 4.031,12.683 3.585,12.404 C2.218,11.549 1.104,10.115 1.112,7.908 C1.292,7.993 1.471,8.078 1.650,8.163 C1.994,8.308 2.343,8.385 2.752,8.470 C2.925,8.506 3.271,8.607 3.470,8.533 C3.461,8.533 3.453,8.533 3.444,8.533 C3.180,8.226 2.749,8.021 2.483,7.690 C1.606,6.601 0.785,4.924 1.304,2.926 C1.436,2.419 1.645,1.972 1.868,1.559 C1.877,1.563 1.885,1.567 1.894,1.571 C1.996,1.785 2.224,1.942 2.368,2.121 C2.816,2.676 3.368,3.175 3.931,3.615 C5.849,5.115 7.576,6.037 10.350,6.719 C11.054,6.893 11.867,7.025 12.708,7.026 C12.472,6.339 12.548,5.226 12.733,4.561 C13.201,2.887 14.216,1.682 15.706,1.035 C16.062,0.881 16.457,0.768 16.872,0.677 C17.086,0.652 17.299,0.626 17.513,0.601 Z"/>
</symbol></svg>