<svg xmlns="http://www.w3.org/2000/svg" viewBox="0 0 20 14">
  <path d="M15.998,2.283 C15.985,2.276 15.973,2.262 15.960,2.250 C15.212,1.589 14.333,1.273 13.323,1.311 L13.292,1.243 C13.298,1.237 13.304,1.237 13.310,1.237 C14.227,1.038 14.769,0.834 14.931,0.612 C14.988,0.433 14.920,0.334 14.720,0.309 C14.258,0.365 13.834,0.458 13.454,0.600 C13.934,0.309 14.121,0.106 14.015,-0.000 C13.541,0.012 13.030,0.242 12.494,0.693 C12.693,0.371 12.768,0.198 12.718,0.167 C12.463,0.334 12.238,0.514 12.045,0.705 C11.639,1.132 11.315,1.527 11.066,1.887 L11.054,1.917 C10.412,2.900 9.963,3.889 9.694,4.898 L9.595,4.973 L9.576,4.990 C9.190,4.533 8.728,4.150 8.174,3.839 C7.519,3.438 6.752,3.055 5.867,2.684 C4.900,2.214 3.921,1.824 2.930,1.522 C2.924,2.567 3.466,3.401 4.545,4.007 L4.545,4.026 C4.165,4.019 3.797,4.075 3.441,4.181 C3.510,5.151 4.239,5.819 5.623,6.190 L5.617,6.208 C5.075,6.178 4.626,6.357 4.277,6.728 C4.732,7.569 5.536,7.971 6.702,7.940 C6.471,8.051 6.291,8.174 6.172,8.311 C5.960,8.521 5.891,8.770 5.960,9.053 C6.209,9.480 6.658,9.677 7.319,9.647 L7.319,9.647 L7.357,9.690 C7.350,9.696 7.344,9.702 7.338,9.708 C6.197,10.822 4.819,11.322 3.204,11.218 L3.179,11.230 C2.195,11.223 1.141,10.779 0.000,9.888 C1.147,11.446 2.668,12.571 4.551,13.277 C6.708,13.951 8.866,14.000 11.016,13.424 L11.054,13.424 C13.142,12.855 14.913,11.687 16.371,9.919 C17.045,8.991 17.469,8.108 17.637,7.260 C18.728,7.297 19.514,7.000 20.000,6.370 L19.988,6.351 C19.626,6.474 18.915,6.438 17.861,6.234 L17.861,6.122 C17.861,6.116 17.861,6.116 17.868,6.122 C19.022,5.998 19.701,5.647 19.919,5.064 C19.115,5.362 18.323,5.367 17.537,5.090 C17.394,4.063 16.883,3.129 15.998,2.283 Z"/>
</svg>
