<svg xmlns="http://www.w3.org/2000/svg" viewBox="0 0 16 16">
  <path d="M14.817,16.000 L1.182,16.000 C0.529,16.000 -0.000,15.486 -0.000,14.854 L-0.000,1.146 C-0.000,0.513 0.529,-0.000 1.182,-0.000 L14.817,-0.000 C15.471,-0.000 16.000,0.513 16.000,1.146 L16.000,14.854 C16.000,15.486 15.471,16.000 14.817,16.000 ZM2.433,13.393 L4.850,13.393 L4.850,6.169 L2.433,6.169 L2.433,13.393 ZM3.657,2.686 C2.831,2.686 2.290,3.225 2.290,3.934 C2.290,4.628 2.815,5.182 3.626,5.182 L3.642,5.182 C4.484,5.182 5.009,4.628 5.009,3.934 C4.993,3.225 4.484,2.686 3.657,2.686 ZM13.564,9.251 C13.564,7.032 12.372,5.999 10.782,5.999 C9.499,5.999 8.925,6.700 8.604,7.192 L8.604,6.169 L6.187,6.169 C6.219,6.846 6.187,13.393 6.187,13.393 L8.604,13.393 L8.604,9.359 C8.604,9.143 8.619,8.927 8.683,8.773 C8.858,8.341 9.256,7.895 9.923,7.895 C10.798,7.895 11.147,8.557 11.147,9.528 L11.147,13.393 L13.564,13.393 L13.564,9.251 ZM8.588,7.217 C8.593,7.208 8.599,7.200 8.604,7.192 L8.604,7.217 L8.588,7.217 Z"/>
</svg>
