<svg aria-hidden="true" style="position: absolute; width: 0; height: 0; overflow: hidden;" version="1.1" xmlns="http://www.w3.org/2000/svg" xmlns:xlink="http://www.w3.org/1999/xlink">
  <defs>
    <symbol id="icon-clock" viewBox="0 0 33 32">
      <path d="M31.732 9.81c-1.635-3.815-4.694-6.875-8.509-8.509 1.032-0.812 2.331-1.301 3.746-1.301 3.349 0 6.063 2.715 6.063 6.063 0 1.415-0.488 2.714-1.301 3.746zM31.484 16.516c0 3.976-1.561 7.58-4.091 10.261l2.094 2.093c0.277 0.278 0.448 0.66 0.448 1.083 0 0.845-0.685 1.531-1.531 1.531-0.423 0-0.806-0.171-1.083-0.449l-2.248-2.248c-2.427 1.695-5.373 2.697-8.557 2.697-3.178 0-6.119-0.997-8.543-2.687l-2.233 2.233c-0.281 0.281-0.668 0.454-1.095 0.454-0.855 0-1.548-0.694-1.548-1.549 0-0.426 0.173-0.814 0.453-1.094l2.077-2.077c-2.522-2.679-4.078-6.278-4.078-10.247 0-8.266 6.701-14.968 14.968-14.968s14.968 6.701 14.968 14.968zM16.516 4.645c-6.556 0-11.871 5.314-11.871 11.871 0 6.556 5.315 11.871 11.871 11.871s11.871-5.315 11.871-11.871c0-6.557-5.315-11.871-11.871-11.871zM22.71 18.065h-6.194c-0.855 0-1.548-0.694-1.548-1.548v-8.258c0-0.855 0.694-1.548 1.548-1.548s1.548 0.694 1.548 1.548v6.709h4.645c0.855 0 1.548 0.694 1.548 1.549 0 0.855-0.694 1.548-1.548 1.548zM1.329 10.018c-0.83-1.053-1.329-2.379-1.329-3.825 0-3.421 2.773-6.194 6.194-6.194 1.445 0 2.772 0.499 3.826 1.329-3.897 1.669-7.021 4.794-8.691 8.69z"></path>
    </symbol>

    <symbol id="icon-graph" viewBox="0 0 32 32">
      <path d="M30.5 32h-29c-0.828 0-1.5-0.672-1.5-1.5v-29.001c0-0.827 0.672-1.499 1.5-1.499h29c0.828 0 1.5 0.672 1.5 1.499v29.001c0 0.828-0.672 1.5-1.5 1.5zM29 3h-26v26h26v-26zM5.215 16.239v-0.002l4-2.498c0.229-0.141 0.497-0.222 0.785-0.222 0.311 0 0.6 0.095 0.84 0.257l0.006-0.008 6.631 4.42 7.638-5.391c0.248-0.182 0.554-0.29 0.885-0.29 0.828 0 1.5 0.672 1.5 1.5 0 0.5-0.245 0.943-0.622 1.216h0.001l-8.501 6c-0.246 0.179-0.55 0.284-0.878 0.284-0.321 0-0.618-0.101-0.861-0.272l-6.657-4.438-3.135 1.96c-0.241 0.165-0.533 0.262-0.847 0.262-0.828 0-1.5-0.672-1.5-1.5 0-0.541 0.286-1.014 0.715-1.278z"></path>
    </symbol>

    <symbol id="icon-home" viewBox="0 0 32 32">
      <path d="M32 16.5c0 0.828-0.672 1.499-1.5 1.499-0.395 0-0.752-0.155-1.020-0.405l-0.003 0.004-13.477-13.476-13.447 13.446c-0.271 0.267-0.643 0.431-1.053 0.431-0.828 0-1.5-0.671-1.5-1.499 0-0.425 0.177-0.808 0.461-1.081l14.458-14.459c0.273-0.283 0.656-0.46 1.081-0.46v0 0c0 0 0 0 0.001 0 0.026 0 0.052 0 0.079 0.002 0.004 0 0.008 0.001 0.012 0.001 0.023 0.001 0.045 0.003 0.068 0.005 0.001 0 0.002 0 0.004 0.001 0.367 0.040 0.694 0.212 0.933 0.468l0.001-0.001 5.902 5.902v-1.378c0-0.829 0.671-1.5 1.5-1.5 0.828 0 1.5 0.671 1.5 1.5v4.378l5.598 5.598-0.004 0.004c0.25 0.268 0.406 0.625 0.406 1.020zM29 19v10.5c0 0.828-0.672 1.5-1.5 1.5h-3v-12h-6v12h-14c-0.828 0-1.5-0.672-1.5-1.5v-10.5l13-13 13 13zM13.5 19h-6v6h6v-6z"></path>
    </symbol>
  </defs>
</svg>
