<svg aria-hidden="true" style="position: absolute; width: 0; height: 0; overflow: hidden;" version="1.1" xmlns="http://www.w3.org/2000/svg" xmlns:xlink="http://www.w3.org/1999/xlink">
  <defs>
    <symbol id="icon-facebook" viewBox="0 0 14 32">
      <title>icon-facebook</title>
      <path d="M14.222 10.363h-4.843v-3.323c0-1.246 0.789-1.538 1.346-1.538s3.419 0 3.419 0v-5.483l-4.708-0.020c-5.225 0-6.414 4.089-6.414 6.708v3.655h-3.022v5.65h3.022c0 7.25 0 15.988 0 15.988h6.357c0 0 0-8.823 0-15.988h4.288l0.555-5.65z"></path>
    </symbol>

    <symbol id="icon-linkedin" viewBox="0 0 32 32">
      <title>icon-linkedin</title>
      <path d="M29.634 32h-27.27c-1.306 0-2.364-1.028-2.364-2.292v-27.416c0-1.266 1.058-2.292 2.364-2.292h27.27c1.308 0 2.366 1.026 2.366 2.292v27.416c0 1.264-1.058 2.292-2.366 2.292zM4.866 26.786h4.834v-14.448h-4.834v14.448zM7.314 5.372c-1.652 0-2.734 1.078-2.734 2.496 0 1.388 1.050 2.496 2.672 2.496h0.032c1.684 0 2.734-1.108 2.734-2.496-0.032-1.418-1.050-2.496-2.704-2.496zM27.128 18.502c0-4.438-2.384-6.504-5.564-6.504-2.566 0-3.714 1.402-4.356 2.386v-2.046h-4.834c0.064 1.354 0 14.448 0 14.448h4.834v-8.068c0-0.432 0.030-0.864 0.158-1.172 0.35-0.864 1.146-1.756 2.48-1.756 1.75 0 2.448 1.324 2.448 3.266v7.73h4.834v-8.284zM17.176 14.434c0.010-0.018 0.022-0.034 0.032-0.050v0.050h-0.032z"></path>
    </symbol>

    <symbol id="icon-twitter" viewBox="0 0 46 32">
      <title>icon-twitter</title>
      <path d="M36.567 5.218c-0.030-0.016-0.057-0.048-0.087-0.075-1.71-1.511-3.719-2.233-6.027-2.146l-0.071-0.155c0.014-0.014 0.027-0.014 0.041-0.014 2.096-0.455 3.335-0.921 3.705-1.429 0.13-0.409-0.025-0.635-0.482-0.693-1.056 0.128-2.025 0.341-2.894 0.665 1.097-0.665 1.525-1.129 1.282-1.371-1.083 0.027-2.251 0.553-3.477 1.584 0.455-0.736 0.626-1.131 0.512-1.202-0.583 0.382-1.097 0.793-1.538 1.23-0.928 0.976-1.669 1.879-2.238 2.702l-0.027 0.069c-1.467 2.247-2.494 4.507-3.109 6.814l-0.226 0.171-0.043 0.039c-0.882-1.045-1.938-1.92-3.205-2.631-1.497-0.917-3.25-1.792-5.273-2.64-2.21-1.074-4.448-1.966-6.713-2.656-0.014 2.389 1.225 4.295 3.691 5.68v0.043c-0.869-0.016-1.71 0.112-2.523 0.354 0.158 2.217 1.824 3.744 4.987 4.592l-0.014 0.041c-1.239-0.069-2.265 0.341-3.063 1.189 1.040 1.922 2.878 2.841 5.543 2.77-0.528 0.254-0.939 0.535-1.211 0.848-0.485 0.48-0.642 1.049-0.485 1.696 0.569 0.976 1.595 1.426 3.106 1.358v0l0.087 0.098c-0.016 0.014-0.030 0.027-0.043 0.041-2.608 2.546-5.758 3.689-9.449 3.451l-0.057 0.027c-2.249-0.016-4.658-1.031-7.266-3.067 2.622 3.561 6.098 6.133 10.402 7.746 4.93 1.541 9.863 1.653 14.777 0.336h0.087c4.773-1.301 8.821-3.97 12.153-8.011 1.541-2.121 2.51-4.139 2.894-6.078 2.494 0.085 4.29-0.594 5.401-2.034l-0.027-0.043c-0.827 0.281-2.453 0.199-4.862-0.267v-0.256c0-0.014 0-0.014 0.016 0 2.638-0.283 4.19-1.086 4.688-2.418-1.838 0.681-3.648 0.693-5.445 0.059-0.327-2.347-1.495-4.482-3.518-6.416z"></path>
    </symbol>
  </defs>
</svg>
